<svg width="900" height="200" viewBox="0 0 900 200" xmlns="http://www.w3.org/2000/svg">
<rect width="900" height="200" fill="#0d1b24"/>
<rect width="900" height="200" fill="#0d1b24"/><line x1="0" y1="0" x2="0" y2="200" stroke="#1a2e3a" stroke-width="1"/><line x1="60" y1="0" x2="60" y2="200" stroke="#1a2e3a" stroke-width="1"/><line x1="120" y1="0" x2="120" y2="200" stroke="#1a2e3a" stroke-width="1"/><line x1="180" y1="0" x2="180" y2="200" stroke="#1a2e3a" stroke-width="1"/><line x1="240" y1="0" x2="240" y2="200" stroke="#1a2e3a" stroke-width="1"/><line x1="300" y1="0" x2="300" y2="200" stroke="#1a2e3a" stroke-width="1"/><line x1="360" y1="0" x2="360" y2="200" stroke="#1a2e3a" stroke-width="1"/><line x1="420" y1="0" x2="420" y2="200" stroke="#1a2e3a" stroke-width="1"/><line x1="480" y1="0" x2="480" y2="200" stroke="#1a2e3a" stroke-width="1"/><line x1="540" y1="0" x2="540" y2="200" stroke="#1a2e3a" stroke-width="1"/><line x1="600" y1="0" x2="600" y2="200" stroke="#1a2e3a" stroke-width="1"/><line x1="660" y1="0" x2="660" y2="200" stroke="#1a2e3a" stroke-width="1"/><line x1="720" y1="0" x2="720" y2="200" stroke="#1a2e3a" stroke-width="1"/><line x1="780" y1="0" x2="780" y2="200" stroke="#1a2e3a" stroke-width="1"/><line x1="840" y1="0" x2="840" y2="200" stroke="#1a2e3a" stroke-width="1"/><polyline points="350,160 430,140 510,120 590,100 670,110 750,80 830,85 900,70" fill="none" stroke="#5cb85c" stroke-width="2.5" opacity="0.85"/><circle cx="350" cy="160" r="5" fill="none" stroke="#5cb85c" stroke-width="2.5"/><circle cx="350" cy="160" r="2" fill="#5cb85c"/><circle cx="430" cy="140" r="5" fill="none" stroke="#5cb85c" stroke-width="2.5"/><circle cx="430" cy="140" r="2" fill="#5cb85c"/><circle cx="510" cy="120" r="5" fill="none" stroke="#5cb85c" stroke-width="2.5"/><circle cx="510" cy="120" r="2" fill="#5cb85c"/><circle cx="590" cy="100" r="5" fill="none" stroke="#5cb85c" stroke-width="2.5"/><circle cx="590" cy="100" r="2" fill="#5cb85c"/><circle cx="670" cy="110" r="5" fill="none" stroke="#5cb85c" stroke-width="2.5"/><circle cx="670" cy="110" r="2" fill="#5cb85c"/><circle cx="750" cy="80" r="5" fill="none" stroke="#5cb85c" stroke-width="2.5"/><circle cx="750" cy="80" r="2" fill="#5cb85c"/><circle cx="830" cy="85" r="5" fill="none" stroke="#5cb85c" stroke-width="2.5"/><circle cx="830" cy="85" r="2" fill="#5cb85c"/><circle cx="900" cy="70" r="5" fill="none" stroke="#5cb85c" stroke-width="2.5"/><circle cx="900" cy="70" r="2" fill="#5cb85c"/><radialGradient id="glow" cx="70%" cy="60%" r="50%"><stop offset="0%" stop-color="#5cb85c" stop-opacity="0.18"/><stop offset="100%" stop-color="#0d1b24" stop-opacity="0"/></radialGradient><rect width="900" height="200" fill="url(#glow)"/>
    <polygon points="30,160.0 44.0,160.0 84.2,47.0 75.8,47.0" fill="#ffffff"/>
    
    <polygon points="130,160.0 116.0,160.0 75.8,47.0 84.2,47.0" fill="#ffffff"/>
    <rect x="54.0" y="109.6" width="52.0" height="8.4" fill="#ffffff"/><circle cx="80" cy="126.4" r="5.320000000000001" fill="#5cb85c"/><text x="155" y="90" font-family="'Arial Black', Arial, sans-serif" font-weight="900" font-size="48" fill="#ffffff" text-anchor="start" letter-spacing="1">Anthrimon</text><text x="158" y="115" font-family="Arial, sans-serif" font-weight="400" font-size="11" fill="#5cb85c" text-anchor="start" letter-spacing="5">NETWORK MONITORING</text>
</svg>