<svg width="900" height="130" viewBox="0 0 900 130" xmlns="http://www.w3.org/2000/svg">
<rect width="900" height="130" fill="#0d1b24"/>
<rect width="900" height="130" fill="#0d1b24"/><circle cx="480" cy="22" r="2.5" fill="#5cb85c" opacity="0.5"/><circle cx="498" cy="22" r="2.5" fill="#5cb85c" opacity="0.5"/><circle cx="516" cy="22" r="2.5" fill="#5cb85c" opacity="0.5"/><circle cx="534" cy="22" r="2.5" fill="#5cb85c" opacity="0.5"/><circle cx="552" cy="22" r="2.5" fill="#5cb85c" opacity="0.5"/><circle cx="570" cy="22" r="2.5" fill="#5cb85c" opacity="0.5"/><circle cx="588" cy="22" r="2.5" fill="#5cb85c" opacity="0.5"/><circle cx="606" cy="22" r="2.5" fill="#5cb85c" opacity="0.5"/><circle cx="624" cy="22" r="2.5" fill="#5cb85c" opacity="0.5"/><circle cx="642" cy="22" r="2.5" fill="#5cb85c" opacity="0.5"/><circle cx="660" cy="22" r="2.5" fill="#5cb85c" opacity="0.5"/><circle cx="678" cy="22" r="2.5" fill="#5cb85c" opacity="0.5"/><circle cx="696" cy="22" r="2.5" fill="#5cb85c" opacity="0.5"/><circle cx="714" cy="22" r="2.5" fill="#5cb85c" opacity="0.5"/><circle cx="732" cy="22" r="2.5" fill="#5cb85c" opacity="0.5"/><circle cx="750" cy="22" r="2.5" fill="#5cb85c" opacity="0.5"/><circle cx="768" cy="22" r="2.5" fill="#5cb85c" opacity="0.5"/><circle cx="786" cy="22" r="2.5" fill="#5cb85c" opacity="0.5"/><circle cx="804" cy="22" r="2.5" fill="#5cb85c" opacity="0.5"/><circle cx="822" cy="22" r="2.5" fill="#5cb85c" opacity="0.5"/><circle cx="840" cy="22" r="2.5" fill="#5cb85c" opacity="0.5"/><circle cx="858" cy="22" r="2.5" fill="#5cb85c" opacity="0.5"/><circle cx="480" cy="52" r="2.5" fill="#5cb85c" opacity="0.5"/><circle cx="498" cy="52" r="2.5" fill="#5cb85c" opacity="0.5"/><circle cx="516" cy="52" r="2.5" fill="#5cb85c" opacity="0.5"/><circle cx="534" cy="52" r="2.5" fill="#5cb85c" opacity="0.5"/><circle cx="552" cy="52" r="2.5" fill="#5cb85c" opacity="0.5"/><circle cx="570" cy="52" r="2.5" fill="#5cb85c" opacity="0.5"/><circle cx="588" cy="52" r="2.5" fill="#5cb85c" opacity="0.5"/><circle cx="606" cy="52" r="2.5" fill="#5cb85c" opacity="0.5"/><circle cx="624" cy="52" r="2.5" fill="#5cb85c" opacity="0.5"/><circle cx="642" cy="52" r="2.5" fill="#5cb85c" opacity="0.5"/><circle cx="660" cy="52" r="2.5" fill="#5cb85c" opacity="0.5"/><circle cx="678" cy="52" r="2.5" fill="#5cb85c" opacity="0.5"/><circle cx="696" cy="52" r="2.5" fill="#5cb85c" opacity="0.5"/><circle cx="714" cy="52" r="2.5" fill="#5cb85c" opacity="0.5"/><circle cx="732" cy="52" r="2.5" fill="#5cb85c" opacity="0.5"/><circle cx="750" cy="52" r="2.5" fill="#5cb85c" opacity="0.5"/><circle cx="768" cy="52" r="2.5" fill="#5cb85c" opacity="0.5"/><circle cx="786" cy="52" r="2.5" fill="#5cb85c" opacity="0.5"/><circle cx="804" cy="52" r="2.5" fill="#5cb85c" opacity="0.5"/><circle cx="822" cy="52" r="2.5" fill="#5cb85c" opacity="0.5"/><circle cx="840" cy="52" r="2.5" fill="#5cb85c" opacity="0.5"/><circle cx="858" cy="52" r="2.5" fill="#5cb85c" opacity="0.5"/><circle cx="480" cy="82" r="2.5" fill="#5cb85c" opacity="0.5"/><circle cx="498" cy="82" r="2.5" fill="#5cb85c" opacity="0.5"/><circle cx="516" cy="82" r="2.5" fill="#5cb85c" opacity="0.5"/><circle cx="534" cy="82" r="2.5" fill="#5cb85c" opacity="0.5"/><circle cx="552" cy="82" r="2.5" fill="#5cb85c" opacity="0.5"/><circle cx="570" cy="82" r="2.5" fill="#5cb85c" opacity="0.5"/><circle cx="588" cy="82" r="2.5" fill="#5cb85c" opacity="0.5"/><circle cx="606" cy="82" r="2.5" fill="#5cb85c" opacity="0.5"/><circle cx="624" cy="82" r="2.5" fill="#5cb85c" opacity="0.5"/><circle cx="642" cy="82" r="2.5" fill="#5cb85c" opacity="0.5"/><circle cx="660" cy="82" r="2.5" fill="#5cb85c" opacity="0.5"/><circle cx="678" cy="82" r="2.5" fill="#5cb85c" opacity="0.5"/><circle cx="696" cy="82" r="2.5" fill="#5cb85c" opacity="0.5"/><circle cx="714" cy="82" r="2.5" fill="#5cb85c" opacity="0.5"/><circle cx="732" cy="82" r="2.5" fill="#5cb85c" opacity="0.5"/><circle cx="750" cy="82" r="2.5" fill="#5cb85c" opacity="0.5"/><circle cx="768" cy="82" r="2.5" fill="#5cb85c" opacity="0.5"/><circle cx="786" cy="82" r="2.5" fill="#5cb85c" opacity="0.5"/><circle cx="804" cy="82" r="2.5" fill="#5cb85c" opacity="0.5"/><circle cx="822" cy="82" r="2.5" fill="#5cb85c" opacity="0.5"/><circle cx="840" cy="82" r="2.5" fill="#5cb85c" opacity="0.5"/><circle cx="858" cy="82" r="2.5" fill="#5cb85c" opacity="0.5"/><circle cx="480" cy="112" r="2.5" fill="#5cb85c" opacity="0.5"/><circle cx="498" cy="112" r="2.5" fill="#5cb85c" opacity="0.5"/><circle cx="516" cy="112" r="2.5" fill="#5cb85c" opacity="0.5"/><circle cx="534" cy="112" r="2.5" fill="#5cb85c" opacity="0.5"/><circle cx="552" cy="112" r="2.5" fill="#5cb85c" opacity="0.5"/><circle cx="570" cy="112" r="2.5" fill="#5cb85c" opacity="0.5"/><circle cx="588" cy="112" r="2.5" fill="#5cb85c" opacity="0.5"/><circle cx="606" cy="112" r="2.5" fill="#5cb85c" opacity="0.5"/><circle cx="624" cy="112" r="2.5" fill="#5cb85c" opacity="0.5"/><circle cx="642" cy="112" r="2.5" fill="#5cb85c" opacity="0.5"/><circle cx="660" cy="112" r="2.5" fill="#5cb85c" opacity="0.5"/><circle cx="678" cy="112" r="2.5" fill="#5cb85c" opacity="0.5"/><circle cx="696" cy="112" r="2.5" fill="#5cb85c" opacity="0.5"/><circle cx="714" cy="112" r="2.5" fill="#5cb85c" opacity="0.5"/><circle cx="732" cy="112" r="2.5" fill="#5cb85c" opacity="0.5"/><circle cx="750" cy="112" r="2.5" fill="#5cb85c" opacity="0.5"/><circle cx="768" cy="112" r="2.5" fill="#5cb85c" opacity="0.5"/><circle cx="786" cy="112" r="2.5" fill="#5cb85c" opacity="0.5"/><circle cx="804" cy="112" r="2.5" fill="#5cb85c" opacity="0.5"/><circle cx="822" cy="112" r="2.5" fill="#5cb85c" opacity="0.5"/><circle cx="840" cy="112" r="2.5" fill="#5cb85c" opacity="0.5"/><circle cx="858" cy="112" r="2.5" fill="#5cb85c" opacity="0.5"/><line x1="390" y1="20" x2="390" y2="110" stroke="#5cb85c" stroke-width="2"/>
    <polygon points="22,110.6 32.64,110.6 63.192,24.72 56.808,24.72" fill="#ffffff"/>
    
    <polygon points="98,110.6 87.36,110.6 56.808,24.72 63.192,24.72" fill="#ffffff"/>
    <rect x="40.239999999999995" y="72.29599999999999" width="39.52000000000001" height="6.384" fill="#ffffff"/><circle cx="60" cy="85.064" r="4.043200000000001" fill="#5cb85c"/><text x="120" y="75" font-family="'Arial Black', Arial, sans-serif" font-weight="900" font-size="42" fill="#ffffff" text-anchor="start" letter-spacing="1">Anthrimon</text><text x="430" y="72" font-family="Arial, sans-serif" font-weight="400" font-size="13" fill="#5cb85c" text-anchor="start" letter-spacing="6">NETWORK MONITORING</text>
</svg>